<?xml version="1.0" standalone="no"?>
<!DOCTYPE svg PUBLIC "-//W3C//DTD SVG 20010904//EN"
 "http://www.w3.org/TR/2001/REC-SVG-20010904/DTD/svg10.dtd">
<svg version="1.0" xmlns="http://www.w3.org/2000/svg"
 width="311.000000pt" height="311.000000pt" viewBox="0 0 311.000000 311.000000"
 preserveAspectRatio="xMidYMid meet">
<metadata>
Created by potrace 1.14, written by Peter Selinger 2001-2017
</metadata>
<g transform="translate(0.000000,311.000000) scale(0.100000,-0.100000)"
fill="#000000" stroke="none">
<path d="M1279 2824 c-9 -8 -31 -18 -50 -21 -19 -3 -45 -11 -59 -18 -14 -7
-33 -16 -42 -19 -24 -7 -23 -22 3 -29 13 -4 39 5 69 24 32 20 60 29 89 29 41
0 46 5 35 34 -8 20 -25 20 -45 0z"/>
<path d="M2940 2315 c0 -8 7 -15 15 -15 8 0 15 7 15 15 0 8 -7 15 -15 15 -8 0
-15 -7 -15 -15z"/>
<path d="M2770 1933 c-18 -31 -25 -49 -18 -52 15 -5 68 58 68 81 0 31 -19 20
-50 -29z"/>
<path d="M1496 1643 c-119 -2 -194 -8 -203 -14 -18 -16 -19 -1559 -1 -1577 18
-18 677 -16 782 3 183 32 300 141 337 315 17 80 7 244 -20 312 -27 69 -97 149
-162 187 l-48 27 49 42 c87 75 137 213 120 333 -26 184 -174 311 -410 352
-107 19 -205 24 -444 20z m349 -93 c210 -24 331 -87 393 -205 22 -42 26 -63
26 -130 1 -70 -3 -87 -29 -133 -33 -60 -83 -100 -160 -127 -42 -15 -101 -19
-375 -25 -179 -4 -326 -6 -327 -6 -1 1 -5 141 -9 313 l-7 312 49 4 c106 8 354
6 439 -3z m235 -721 c118 -23 208 -98 237 -199 20 -70 20 -201 -1 -273 -20
-69 -68 -133 -127 -169 -79 -49 -150 -58 -501 -58 l-318 0 0 355 0 355 273 2
c310 3 360 2 437 -13z"/>
<path d="M80 1627 l-25 -13 -3 -772 c-1 -522 1 -779 8 -793 12 -21 50 -25 68
-7 9 9 12 92 12 310 l0 298 148 0 c239 0 370 23 499 86 125 62 216 178 244
314 15 70 6 231 -15 290 -55 150 -186 248 -384 286 -98 19 -515 20 -552 1z
m574 -97 c178 -45 271 -137 296 -293 18 -115 -11 -237 -77 -324 -15 -20 -55
-54 -87 -75 -108 -70 -232 -95 -493 -101 l-153 -3 0 408 0 408 218 0 c185 0
231 -3 296 -20z"/>
</g>
</svg>
